Exact Audio Copy V0.99 prebeta 5 from 4. May 2009

EAC extraction logfile from 17. November 2009, 22:28

Ajattara / Äpäre

Used drive  : HL-DT-STDVDRAM GT20N   Adapter: 1  ID: 0

Read mode               : Secure
Utilize accurate stream : Yes
Defeat audio cache      : Yes
Make use of C2 pointers : No

Read offset correction                      : 667
Overread into Lead-In and Lead-Out          : No
Fill up missing offset samples with silence : Yes
Delete leading and trailing silent blocks   : No
Null samples used in CRC calculations       : Yes
Used interface                              : Native Win32 interface for Win NT & 2000
Gap handling                                : Appended to previous track

Used output format              : User Defined Encoder
Selected bitrate                : 128 kBit/s
Quality                         : High
Add ID3 tag                     : No
Command line compressor         : C:\Program Files (x86)\Exact Audio Copy\Flac\flac.exe
Additional command line options : -V -8 -T "artist=%a" -T "title=%t" -T "album=%g" -T "date=%y" -T "tracknumber=%n" -T "genre=%m" %s  


TOC of the extracted CD

     Track |   Start  |  Length  | Start sector | End sector 
    ---------------------------------------------------------
        1  |  0:00.00 |  3:50.61 |         0    |    17310   
        2  |  3:50.61 |  2:42.17 |     17311    |    29477   
        3  |  6:33.03 |  3:07.50 |     29478    |    43552   
        4  |  9:40.53 |  2:45.67 |     43553    |    55994   
        5  | 12:26.45 |  3:08.60 |     55995    |    70154   
        6  | 15:35.30 |  3:37.03 |     70155    |    86432   
        7  | 19:12.33 |  2:37.61 |     86433    |    98268   
        8  | 21:50.19 |  3:09.04 |     98269    |   112447   
        9  | 24:59.23 |  3:51.58 |    112448    |   129830   
       10  | 28:51.06 |  3:39.19 |    129831    |   146274   


Track  1

     Filename E:\EAC\Ajattara - 2006 - Äpäre\01 - Hurmasta.wav

     Pre-gap length  0:00:02.00

     Peak level 96.2 %
     Track quality 100.0 %
     Test CRC F618A211
     Copy CRC F618A211
     Accurately ripped (confidence 4)  [C6ECB46E]
     Copy OK

Track  2

     Filename E:\EAC\Ajattara - 2006 - Äpäre\02 - Kaato.wav

     Peak level 97.7 %
     Track quality 100.0 %
     Test CRC 35DD30D3
     Copy CRC 35DD30D3
     Accurately ripped (confidence 4)  [E814BEB4]
     Copy OK

Track  3

     Filename E:\EAC\Ajattara - 2006 - Äpäre\03 - Saalin Koira.wav

     Peak level 96.2 %
     Track quality 100.0 %
     Test CRC 3DFC3232
     Copy CRC 3DFC3232
     Accurately ripped (confidence 4)  [5C6C385A]
     Copy OK

Track  4

     Filename E:\EAC\Ajattara - 2006 - Äpäre\04 - Lautuma.wav

     Peak level 97.7 %
     Track quality 100.0 %
     Test CRC 4D3A8A5D
     Copy CRC 4D3A8A5D
     Accurately ripped (confidence 4)  [E5DDDFC2]
     Copy OK

Track  5

     Filename E:\EAC\Ajattara - 2006 - Äpäre\05 - Eksyneet.wav

     Peak level 97.2 %
     Track quality 100.0 %
     Test CRC 6960B033
     Copy CRC 6960B033
     Accurately ripped (confidence 4)  [A22557B7]
     Copy OK

Track  6

     Filename E:\EAC\Ajattara - 2006 - Äpäre\06 - Hirsipuulintu.wav

     Pre-gap length  0:00:01.54

     Peak level 97.2 %
     Track quality 100.0 %
     Test CRC 5491B503
     Copy CRC 5491B503
     Accurately ripped (confidence 4)  [095907B0]
     Copy OK

Track  7

     Filename E:\EAC\Ajattara - 2006 - Äpäre\07 - Tahtomattaan Syntynyt.wav

     Peak level 96.2 %
     Track quality 100.0 %
     Test CRC 749398B7
     Copy CRC 749398B7
     Accurately ripped (confidence 4)  [0505A6D7]
     Copy OK

Track  8

     Filename E:\EAC\Ajattara - 2006 - Äpäre\08 - Itse.wav

     Peak level 96.2 %
     Track quality 100.0 %
     Test CRC 3E2ED4CA
     Copy CRC 3E2ED4CA
     Accurately ripped (confidence 4)  [BEE6C1A8]
     Copy OK

Track  9

     Filename E:\EAC\Ajattara - 2006 - Äpäre\09 - Koito.wav

     Peak level 96.2 %
     Track quality 99.9 %
     Test CRC BE6E26D9
     Copy CRC BE6E26D9
     Accurately ripped (confidence 4)  [C8FB6BFD]
     Copy OK

Track 10

     Filename E:\EAC\Ajattara - 2006 - Äpäre\10 - Syntyni.wav

     Peak level 97.7 %
     Track quality 100.0 %
     Test CRC 1FAB6449
     Copy CRC 1FAB6449
     Accurately ripped (confidence 4)  [78FF69D3]
     Copy OK


All tracks accurately ripped

No errors occurred

End of status report
